<svg viewBox="0 0 800 800" xmlns="http://www.w3.org/2000/svg"><path d="M182.33736445359267,486.5880048284656 L213.25712236964515,502.2766332077024 M213.25712236964515,502.2766332077024 L247.53879388660175,515.4413447785322 M247.53879388660175,515.4413447785322 L284.567766761309,525.8432702447992 M284.567766761309,525.8432702447992 L323.6786405402504,533.2934326473201 M323.6786405402504,533.2934326473201 L364.1675776560578,537.6563215110203 M364.1675776560578,537.6563215110203 L405.3051040552178,538.8525599949874 M405.3051040552178,538.8525599949874 L446.34975717304945,536.860352050217 M446.34975717304945,536.860352050217 L486.5617920208319,531.7159750198264 M486.5617920208319,531.7159750198264 L525.2169003372658,523.5130261017955 M525.2169003372658,523.5130261017955 L561.6196273347296,512.4006601617403 M561.6196273347296,512.4006601617403 L595.1162157434151,498.58072615917854 M595.1162157434151,498.58072615917854 L625.106489187495,482.3038670859421 M625.106489187495,482.3038670859421 L651.054825717532,463.86481987496984 M651.054825717532,463.86481987496984 L672.4996961841697,443.596812197652 M672.4996961841697,443.596812197652 L689.0617593550128,421.86531271683725 M689.0617593550128,421.86531271683725 L700.4504739559362,399.061281786799 M700.4504739559362,399.061281786799 L706.4688230076588,375.5939050656102 M706.4688230076588,375.5939050656102 L707.0165044901855,351.88321612708694 M707.0165044901855,351.88321612708694 L702.0910766130207,328.352429302141 M702.0910766130207,328.352429302141 L691.7875680947595,305.4204488044391 M691.7875680947595,305.4204488044391 L676.2962833702703,283.4944427292562 M676.2962833702703,283.4944427292562 L655.8989186935446,262.96269189904046 M655.8989186935446,262.96269189904046 L630.9631743102221,244.1879256585998 M630.9631743102221,244.1879256585998 L601.935906005443,227.50110794040347 M601.935906005443,227.50110794040347 L569.3350664010735,213.19577997235643 M569.3350664010735,213.19577997235643 L533.7404869950352,201.5231322690645 M533.7404869950352,201.5231322690645 L495.7836011778018,192.6878362813272 M495.7836011778018,192.6878362813272 L456.136440988352,186.8446314488782 M456.136440988352,186.8446314488782 L415.5001088934417,184.09577428065685 M415.5001088934417,184.09577428065685 L374.592661297111,184.4893360870076 M374.592661297111,184.4893360870076 L334.13675359326083,188.0184179113888 M334.13675359326083,188.0184179113888 L294.8473749722501,194.62131510427866 M294.8473749722501,194.62131510427866 L257.41943364306314,204.18244994980944 M257.41943364306314,204.18244994980944 L222.51593692616453,216.5343444442093 M222.51593692616453,216.5343444442093 L190.75639313615397,231.46033078940553 M190.75639313615397,231.46033078940553 L162.7060661301861,248.69820202138266 M162.7060661301861,248.69820202138266 L138.86598723293662,267.94458194328445 M138.86598723293662,267.94458194328445 L119.66391919122304,288.86001173074067 M119.66391919122304,288.86001173074067 L105.4466656411771,311.0747772066557 M105.4466656411771,311.0747772066557 L96.4735179402428,334.19521098836384 M96.4735179402428,334.19521098836384 L92.91123038576126,357.81053750353306 M92.91123038576126,357.81053750353306 L94.8306399930205,381.50007863388043 M94.8306399930205,381.50007863388043 L102.20479433201058,404.8407031879184 M102.20479433201058,404.8407031879184 L114.90903610166254,427.41437254132785 M114.90903610166254,427.41437254132785 L132.72259672006624,448.81578345600417 M132.72259672006624,448.81578345600417 L155.3322226182491,468.65967057815635 M155.3322226182491,468.65967057815635 L182.33736445359267,486.5880048284656 M182.33736445359267,486.5880048284656 L161.96937925885106,474.95104427402555 M161.96937925885106,474.95104427402555 L133.56161937162972,456.1946819055097 M133.56161937162972,456.1946819055097 L109.56073802492244,435.49871056600443 M109.56073802492244,435.49871056600443 L90.35786722143285,413.20711775181485 M90.35786722143285,413.20711775181485 L76.26356259861313,389.6895417195803 M76.26356259861313,389.6895417195803 L67.50318926771791,365.33489253711844 M67.50318926771791,365.33489253711844 L64.21340312847349,340.5448949403739 M64.21340312847349,340.5448949403739 L66.44057501930047,315.72725181661815 M66.44057501930047,315.72725181661815 L74.14036313520086,291.289019012118 M74.14036313520086,291.289019012118 L87.17912023056556,267.62990209287915 M87.17912023056556,267.62990209287915 L105.33639625589774,245.1357949575705 M105.33639625589774,245.1357949575705 L128.30905952279335,224.17260358071252 M128.30905952279335,224.17260358071252 L155.71659947598138,205.08052652060024 M155.71659947598138,205.08052652060024 L187.1075475446623,188.16866129657274 M187.1075475446623,188.16866129657274 L221.9669786019315,173.71023499253556 M221.9669786019315,173.71023499253556 L259.7249909045816,161.93844481154676 M259.7249909045816,161.93844481154676 L299.76584494447957,153.0428488979622 M299.76584494447957,153.0428488979622 L341.43775411807707,147.1665173228774 M341.43775411807707,147.1665173228774 L384.0633642645963,144.40389302658508 M384.0633642645963,144.40389302658508 L426.9502415988376,144.7993472147691 M426.9502415988376,144.7993472147691 L469.40192293160976,148.34652995826102 M469.40192293160976,148.34652995826102 L510.7287483071,154.9884636587973 M510.7287483071,154.9884636587973 L550.2587632428986,164.61837738281613 M550.2587632428986,164.61837738281613 L587.3482367119914,177.0813580213807 M587.3482367119914,177.0813580213807 L621.3919833999283,192.17663109742196 M621.3919833999283,192.17663109742196 L651.8330065182334,209.6606461713775 M651.8330065182334,209.6606461713775 L678.1715011848372,229.25077793065816 M678.1715011848372,229.25077793065816 L699.9730762379884,250.62968873817192 M699.9730762379884,250.62968873817192 L716.8759761067611,273.4502513649111 M716.8759761067611,273.4502513649111 L728.597330941392,297.34096723176754 M728.597330941392,297.34096723176754 L734.9380493001721,321.9119134045248 M734.9380493001721,321.9119134045248 L735.7865968715265,346.76093973877903 M735.7865968715265,346.76093973877903 L731.121277555355,371.4802178864404 M731.121277555355,371.4802178864404 L721.0110941349888,395.66286366492795 M721.0110941349888,395.66286366492795 L705.6151411145189,418.9097765156583 M705.6151411145189,418.9097765156583 L685.1804016452651,440.8362147339746 M685.1804016452651,440.8362147339746 L660.0381061645222,461.0783950665724 M660.0381061645222,461.0783950665724 L630.598617967394,479.2996866605765 M630.598617967394,479.2996866605765 L597.3447686110824,495.1963856186294 M597.3447686110824,495.1963856186294 L560.8240349576691,508.50303428917186 M560.8240349576691,508.50303428917186 L521.6394915671192,518.997071578137 M521.6394915671192,518.997071578137 L480.43956395679413,526.5027334102973 M480.43956395679413,526.5027334102973 L437.9071612707109,530.8941693437165 M437.9071612707109,530.8941693437165 L394.748022179312,532.0977337281637 M394.748022179312,532.0977337281637 L351.67863573858375,530.0932029271931 M351.67863573858375,530.0932029271931 L309.4138715815384,524.9142374966123 M309.4138715815384,524.9142374966123 L268.65492541169226,516.647683089519 M268.65492541169226,516.647683089519 L230.07711604763003,505.43213759359423 M230.07711604763003,505.43213759359423 L194.31858440920135,491.45535934398185 M194.31858440920135,491.45535934398185 L161.96937925885106,474.95104427402555 M182.5796372778503,603.2740990314766 L213.46506544878613,618.9799855543309 M213.46506544878613,618.9799855543309 L247.7086370021096,632.1591708260019 M247.7086370021096,632.1591708260019 L284.69642592277773,642.572527316739 M284.69642592277773,642.572527316739 L323.7637768906929,650.0308741409614 M323.7637768906929,650.0308741409614 L364.2076421872935,654.3985547935902 M364.2076421872935,654.3985547935902 L405.2993674852023,655.596106973415 M405.2993674852023,655.596106973415 L446.29832393895765,653.6017111744184 M446.29832393895765,653.6017111744184 L486.465598273661,648.4516837835191 M486.465598273661,648.4516837835191 L525.0776959305474,640.2397227879497 M525.0776959305474,640.2397227879497 L561.4399422074019,629.1151438349641 M561.4399422074019,629.1151438349641 L594.8993114492994,615.2800137913002 M594.8993114492994,615.2800137913002 L624.8562967985138,598.9852467505527 M624.8562967985138,598.9852467505527 L650.7758713013702,580.5258991791762 M650.7758713013702,580.5258991791762 L672.197015658912,560.2355609747789 M672.197015658912,560.2355609747789 L688.7408045328865,538.4800992534238 M688.7408045328865,538.4800992534238 L700.1170116184527,515.6509019878716 M700.1170116184527,515.6509019878716 L706.1288292769602,492.15760391470315 M706.1288292769602,492.15760391470315 L706.6760563265565,468.42070122279904 M706.6760563265565,468.42070122279904 L701.7562427901061,444.863876040023 M701.7562427901061,444.863876040023 L691.4643013814233,421.90649728008714 M691.4643013814233,421.90649728008714 L675.9903158944905,399.95618631626604 M675.9903158944905,399.95618631626604 L655.6156622818653,379.40165769641635 M655.6156622818653,379.40165769641635 L630.7076273442161,360.60604725376663 M630.7076273442161,360.60604725376663 L601.7125682526815,343.90069091594677 M601.7125682526815,343.90069091594677 L569.1478629753456,329.57946072939865 M569.1478629753456,329.57946072939865 L533.5927025315892,317.8938309615851 M533.5927025315892,317.8938309615851 L495.6778252002921,309.04870471988374 M495.6778252002921,309.04870471988374 L456.0745250912341,303.1989968561261 M456.0745250912341,303.1989968561261 L415.4831361681312,300.4470799249764 M415.4831361681312,300.4470799249764 L374.6209285379244,300.8410798260023 M374.6209285379244,300.8410798260023 L334.2097664775062,304.3740897672939 M334.2097664775062,304.3740897672939 L294.9638560960773,310.9843350361425 M294.9638560960773,310.9843350361425 L257.57734361038126,320.55610678421135 M257.57734361038126,320.55610678421135 L222.71250791404523,332.92173722054724 M222.71250791404523,332.92173722054724 L190.98817481607344,347.86431342356695 M190.98817481607344,347.86431342356695 L162.96898316248132,365.1213323950857 M162.96898316248132,365.1213323950857 L139.15540768119058,384.3890762543489 M139.15540768119058,384.3890762543489 L119.97473299991856,405.32770490748715 M119.97473299991856,405.32770490748715 L105.77337188303761,427.56709018582353 M105.77337188303761,427.56709018582353 L96.81031975375947,450.71312533173295 M96.81031975375947,450.71312533173295 L93.25213606292186,474.354577877863 M93.25213606292186,474.354577877863 L95.16956850840086,498.0703034554963 M95.16956850840086,498.0703034554963 L102.53568370779931,521.4367035893996 M102.53568370779931,521.4367035893996 L115.22595245178354,544.0352796475829 M115.22595245178354,544.0352796475829 L133.01984225923593,565.4602839592167 M133.01984225923593,565.4602839592167 L155.6044402856214,585.3260301279146 M155.6044402856214,585.3260301279146 L182.5796372778503,603.2740990314766 M182.5796372778503,603.2740990314766 L182.33736445359267,486.5880048284656 M187.36729722099736,460.28754950172436 L160.45646295421858,442.37928722724195 M160.45646295421858,442.37928722724195 L138.03724834938293,422.5258044451608 M138.03724834938293,422.5258044451608 L120.52427820221527,401.1008957468417 M120.52427820221527,401.1008957468417 L108.23894753608096,378.50704254580324 M108.23894753608096,378.50704254580324 L101.40399216463078,355.16757453587974 M101.40399216463078,355.16757453587974 L100.1396546491153,331.5186933733712 M100.1396546491153,331.5186933733712 L104.46198764776113,308.00120163805786 M104.46198764776113,308.00120163805786 L114.28317080997158,285.0522855417453 M114.28317080997158,285.0522855417453 L129.4136228196794,263.0974249469762 M129.4136228196794,263.0974249469762 L149.56605728972983,242.54262931361455 M149.56605728972983,242.54262931361455 L174.36124681359163,223.76710395031643 M174.36124681359163,223.76710395031643 L203.33531200886006,207.11644155737696 M203.33531200886006,207.11644155737696 L235.94855602231831,192.8965064893319 M235.94855602231831,192.8965064893319 L271.59550377236496,181.3680595128238 M271.59550377236496,181.3680595128238 L309.61600236698257,172.74217560373256 M309.61600236698257,172.74217560373256 L349.30726259611424,167.17661367914457 M349.30726259611424,167.17661367914457 L389.93653324661193,164.77308471073212 M389.93653324661193,164.77308471073212 L430.7542450569554,165.57548069495533 M430.7542450569554,165.57548069495533 L471.00746461186134,169.5691584701124 M471.00746461186134,169.5691584701124 L509.9533542725896,176.68115615692832 M509.9533542725896,176.68115615692832 L546.8725656990932,186.78143825015337 M546.8725656990932,186.78143825015337 L581.0820332075223,199.68521959387294 M581.0820332075223,199.68521959387294 L611.9475098210513,215.15604946449577 M611.9475098210513,215.15604946449577 L638.8950828249568,232.90999453517884 M638.8950828249568,232.90999453517884 L661.4217858417308,252.62060551822697 M661.4217858417308,252.62060551822697 L679.105022122725,273.92468378435035 M679.105022122725,273.92468378435035 L691.6107682706978,296.4287093143398 M691.6107682706978,296.4287093143398 L698.6999417840008,319.71601422178776 M698.6999417840008,319.71601422178776 L700.2334460491144,343.3542654868742 M700.2334460491144,343.3542654868742 L696.1752658294382,366.9034488883737 M696.1752658294382,366.9034488883737 L686.5936306783465,389.9240278418982 M686.5936306783465,389.9240278418982 L671.6603559718159,411.9852077216291 M671.6603559718159,411.9852077216291 L651.6481044398668,432.6730940539831 M651.6481044398668,432.6730940539831 L626.9257065059553,451.59861093085533 M626.9257065059553,451.59861093085533 L597.9516427659088,468.4050416017682 M597.9516427659088,468.4050416017682 L565.2656096492401,482.77496910576247 M565.2656096492401,482.77496910576247 L529.4784803000852,494.4365082279942 M529.4784803000852,494.4365082279942 L491.2608042036748,503.16871311123987 M491.2608042036748,503.16871311123987 L451.3299942850292,508.8059392980914 M451.3299942850292,508.8059392980914 L410.4365681860691,511.24116057209415 M410.4365681860691,511.24116057209415 L369.3496867427913,510.4281345158331 M369.3496867427913,510.4281345158331 L328.84224678836847,506.38229254836176 M328.84224678836847,506.38229254836176 L289.67594067115516,499.1804654739476 M289.67594067115516,499.1804654739476 L252.58646370297043,488.9593514951812 M252.58646370297043,488.9593514951812 L218.2695097691364,475.9126970677239 M218.2695097691364,475.9126970677239 L187.36729722099736,460.28754950172436 M288.9661271007225,541.6882558774911 L311.9991748874455,552.7219570032703 M311.9991748874455,552.7219570032703 L338.2318380854928,561.0302790102901 M338.2318380854928,561.0302790102901 L366.7130293954978,566.3102574798304 M366.7130293954978,566.3102574798304 L396.4088640001668,568.3692007227457 M396.4088640001668,568.3692007227457 L426.24070897980454,567.1319492846164 M426.24070897980454,567.1319492846164 L455.1248975797495,562.6436626993213 M455.1248975797495,562.6436626993213 L482.0127155724261,555.0681645280199 M482.0127155724261,555.0681645280199 L505.92896702755365,544.6817690362232 M505.92896702755365,544.6817690362232 L526.0076978959453,531.8629182219684 M526.0076978959453,531.8629182219684 L541.5237665898902,517.0781028578597 M541.5237665898902,517.0781028578597 L551.9189105282685,500.8645085045257 M551.9189105282685,500.8645085045257 L556.8215953307506,483.8102203099097 M556.8215953307506,483.8102203099097 L556.0598262619025,466.53264128101375 M556.0598262619025,466.53264128101375 L549.6666164304538,449.65608258192947 M549.6666164304538,449.65608258192947 L537.8780278714069,433.78917507688266 M537.8780278714069,433.78917507688266 L521.123917277212,419.5030707942173 M521.123917277212,419.5030707942173 L500.01182796156337,407.3111674177526 M500.01182796156337,407.3111674177526 L475.3047941049932,397.6509389410105 M475.3047941049932,397.6509389410105 L447.8937664215646,390.86857738180026 M447.8937664215646,390.86857738180026 L418.76564221612,387.20692888321304 M418.76564221612,387.20692888321304 L388.96820042452106,386.79702357075485 M388.96820042452106,386.79702357075485 L359.5729555039097,389.65352149372734 M359.5729555039097,389.65352149372734 L331.6371257333707,395.6742160165904 M331.6371257333707,395.6742160165904 L306.1662493014978,404.6435795572994 M306.1662493014978,404.6435795572994 L284.0783821468023,416.2402483099516 M284.0783821468023,416.2402483099516 L266.1713219933307,430.0482577810728 M266.1713219933307,430.0482577810728 L253.09378685435905,445.5715898850907 M253.09378685435905,445.5715898850907 L245.32182018689178,462.25169471241736 M245.32182018689178,462.25169471241736 L243.141079303176,479.48731296272524 M243.141079303176,479.48731296272524 L246.63579544863174,496.655963116316 M246.63579544863174,496.655963116316 L255.68502503196189,513.1363913889608 M255.68502503196189,513.1363913889608 L269.96618765593036,528.3311059849561 M269.96618765593036,528.3311059849561 L288.9661271007225,541.6882558774911 M187.36729722099736,460.28754950172436 L187.60401482015345,577.0223736740948 M187.60401482015345,577.0223736740948 L160.72302747326307,559.0943658250578 M160.72302747326307,559.0943658250578 L138.32863528381506,539.2189768183598 M138.32863528381506,539.2189768183598 L120.83500740176265,517.770409285588 M120.83500740176265,517.770409285588 L108.56318925818198,495.1515853850392 M108.56318925818198,495.1515853850392 L101.73567861428592,471.7862999461162 M101.73567861428592,471.7862999461162 L100.47259508677018,448.11123558561076 M100.47259508677018,448.11123558561076 L104.78998459506465,424.5676826586647 M104.78998459506465,424.5676826586647 L114.60013508131556,401.59331288835307 M114.60013508131556,401.59331288835307 L129.71368541037407,379.6140803176141 M129.71368541037407,379.6140803176141 L149.84367604568027,359.0364484302371 M149.84367604568027,359.0364484302371 L174.61130612069329,340.24004795121164 M174.61130612069329,340.24004795121164 L203.55321398485765,323.57086044284335 M203.55321398485765,323.57086044284335 L236.13030170024544,309.3350953408656 M236.13030170024544,309.3350953408656 L271.73776315567267,297.7938082920959 M271.73776315567267,297.7938082920959 L309.7161723934962,289.1583134295279 M309.7161723934962,289.1583134295279 L349.36351216418996,283.5865486892273 M349.36351216418996,283.5865486892273 L389.94783476672313,281.18034058393573 M389.94783476672313,281.18034058393573 L430.7203921302273,281.9836310004789 M430.7203921302273,281.9836310004789 L470.92907556281205,285.9817601306367 M470.92907556281205,285.9817601306367 L509.8318615436547,293.1016831824621 M509.8318615436547,293.1016831824621 L546.7101911379049,303.21321700439563 M546.7101911379049,303.21321700439563 L580.881749814195,316.13136689998544 M580.881749814195,316.13136689998544 L611.7129900970799,331.6194144834095 M611.7129900970799,331.6194144834095 L638.6306346717824,349.3931057017275 M638.6306346717824,349.3931057017275 L661.1322768040532,369.1256234390718 M661.1322768040532,369.1256234390718 L678.7957930777208,390.45336098693866 M678.7957930777208,390.45336098693866 L691.2875377045262,412.9823575485635 M691.2875377045262,412.9823575485635 L698.3687025006617,436.2954800777202 M698.3687025006617,436.2954800777202 L699.9003556248294,459.9599145800602 M699.9003556248294,459.9599145800602 L695.8465328659964,483.53515905613995 M695.8465328659964,483.53515905613995 L686.2753989468235,506.58119141882185 M686.2753989468235,506.58119141882185 L671.3585884762067,528.666742881203 M671.3585884762067,528.666742881203 L651.3684697766182,549.3774649745412 M651.3684697766182,549.3774649745412 L626.6734697980369,568.3238564106044 M626.6734697980369,568.3238564106044 L597.7315633826447,585.1488116179693 M597.7315633826447,585.1488116179693 L565.0818480465435,599.5345685974194 M565.0818480465435,599.5345685974194 L529.3345159884572,611.2089472955664 M529.3345159884572,611.2089472955664 L491.15936669445665,619.9507627352436 M491.15936669445665,619.9507627352436 L451.27300868572854,625.5941914699152 M451.27300868572854,625.5941914699152 L410.4251166760727,628.0320917622571 M410.4251166760727,628.0320917622571 L369.38398684535963,627.2181713134408 M369.38398684535963,627.2181713134408 L328.92164701287777,623.1678781860346 M328.92164701287777,623.1678781860346 L289.79893357848346,615.9581260822553 M289.79893357848346,615.9581260822553 L252.75071618213912,605.7257608257265 M252.75071618213912,605.7257608257265 L218.47190954075472,592.6647383788078 M218.47190954075472,592.6647383788078 L187.60401482015345,577.0223736740948 M288.9414162172906,518.3853260536956 L269.93726142509956,505.0311123146553 M269.93726142509956,505.0311123146553 L255.65293491472107,489.83973963160327 M255.65293491472107,489.83973963160327 L246.60170592271612,473.36293825034363 M246.60170592271612,473.36293825034363 L243.10622511462918,456.19806888124447 M243.10622511462918,456.19806888124447 L245.28746133916883,438.9662486614095 M245.28746133916883,438.9662486614095 L253.0611630402824,422.28982183572145 M253.0611630402824,422.28982183572145 L266.1416080899725,406.7699147687367 M266.1416080899725,406.7699147687367 L284.05264636133666,392.96495357586673 M284.05264636133666,392.96495357586673 L306.14541539023156,381.3708461637506 M306.14541539023156,381.3708461637506 L331.6219405214103,372.40346445150846 M331.6219405214103,372.40346445150846 L359.5639627784944,366.3841006133358 M359.5639627784944,366.3841006133358 L388.96572199651905,363.52823413601294 M388.96572199651905,363.52823413601294 L418.7697667534395,363.93804883226755 M418.7697667534395,363.93804883226755 L447.9043463625678,367.5988879270114 M447.9043463625678,367.5988879270114 L475.3214507833918,374.3797505502657 M475.3214507833918,374.3797505502657 L500.0339647665419,384.03784473731594 M500.0339647665419,384.03784473731594 L521.1507404368517,396.2270556092419 M521.1507404368517,396.2270556092419 L537.9085742451246,410.5100064902882 M537.9085742451246,410.5100064902882 L549.6997874202068,426.37341367570576 M549.6997874202068,426.37341367570576 L556.0944267343701,443.2462516495096 M556.0944267343701,443.2462516495096 L556.8563762736562,460.5200240278642 M556.8563762736562,460.5200240278642 L551.9526139718128,477.57055723522774 M551.9526139718128,477.57055723522774 L541.5551711963603,493.78058397684276 M541.5551711963603,493.78058397684276 L526.035663557821,508.56214804649824 M526.035663557821,508.56214804649824 L505.95247680108275,521.3781813880145 M505.95247680108275,521.3781813880145 L482.03091331521955,531.7622950553362 M482.03091331521955,531.7622950553362 L455.13711982686686,539.336129511637 M455.13711982686686,539.336129511637 L426.2465097470747,543.8234306170116 M426.2465097470747,543.8234306170116 L396.40803151259695,545.0604104253217 M396.40803151259695,545.0604104253217 L366.70559405044895,543.0019192159898 M366.70559405044895,543.0019192159898 L338.21807130551593,537.7231001100112 M338.21807130551593,537.7231001100112 L311.9795789275358,529.4166028978448 M311.9795789275358,529.4166028978448 L288.9414162172906,518.3853260536956 M288.9414162172906,518.3853260536956 L288.9661271007225,541.6882558774911" stroke="black"  stroke-width="4"  fill="red"/></svg>