<svg viewBox="0 0 800 800" xmlns="http://www.w3.org/2000/svg"><path d="M636.2384360294587,205.73350314921566 L636.186104773334,227.57783820728685 M636.186104773334,227.57783820728685 L604.660689308736,211.60763497739714 M604.660689308736,211.60763497739714 L569.9381255131898,198.04189738702738 M569.9381255131898,198.04189738702738 L532.5631530293381,187.09042291961185 M532.5631530293381,187.09042291961185 L493.1206457215311,178.9223241928091 M493.1206457215311,178.9223241928091 L452.2266929214423,173.66360646651168 M452.2266929214423,173.66360646651168 L410.51922721564864,171.3953131879401 M410.51922721564864,171.3953131879401 L368.6484433072236,172.15239372269312 M368.6484433072236,172.15239372269312 L327.2669949018125,175.92316212595716 M327.2669949018125,175.92316212595716 L287.0201652956747,182.6495395577423 M287.0201652956747,182.6495395577423 L248.53614389317204,192.22781770320137 M248.53614389317204,192.22781770320137 L212.41658293105618,204.51018041762245 M212.41658293105618,204.51018041762245 L179.22734075972517,219.30680257962706 M179.22734075972517,219.30680257962706 L149.48990180460066,236.38865900195515 M149.48990180460066,236.38865900195515 L123.67320264242898,255.49081420243925 M123.67320264242898,255.49081420243925 L102.1862314012917,276.3163288112421 M102.1862314012917,276.3163288112421 L85.3715576357057,298.54071474497755 M85.3715576357057,298.54071474497755 L73.49960440660408,321.81674307654896 M73.49960440660408,321.81674307654896 L66.76411243209907,345.7797704959532 M66.76411243209907,345.7797704959532 L65.27862154678206,370.05330256658084 M65.27862154678206,370.05330256658084 L69.07433849749935,394.25484169580625 M69.07433849749935,394.25484169580625 L78.09902765687872,418.00190536218497 M78.09902765687872,418.00190536218497 L92.217425923534,440.9181177513695 M92.217425923534,440.9181177513695 L111.21287936162139,462.6392353116572 M111.21287936162139,462.6392353116572 L134.79045134930948,482.81908389946636 M134.79045134930948,482.81908389946636 L162.58124146716628,501.13523359119165 M162.58124146716628,501.13523359119165 L194.1479762894834,517.2943715613665 M194.1479762894834,517.2943715613665 L228.99190743272584,531.0371729985457 M228.99190743272584,531.0371729985457 L266.5606694765489,542.142714779834 M266.5606694765489,542.142714779834 L306.25721217726795,550.4322035381634 M306.25721217726795,550.4322035381634 L347.4494841844387,555.7720061368386 M347.4494841844387,555.7720061368386 L389.48080822203815,558.0759840988653 M389.48080822203815,558.0759840988653 L431.68063987452683,557.3069456467813 M431.68063987452683,557.3069456467813 L473.3756496429029,553.4773284987459 M473.3756496429029,553.4773284987459 L513.9008516412589,546.6489090337493 M513.9008516412589,546.6489090337493 L552.6105652290811,536.9318075577098 M552.6105652290811,536.9318075577098 L588.8889569011363,524.4825631999735 M588.8889569011363,524.4825631999735 L622.1601889672503,509.5014873159198 M622.1601889672503,509.5014873159198 L651.8976253995876,492.2291948982854 M651.8976253995876,492.2291948982854 L677.6323302455066,472.94258725684756 M677.6323302455066,472.94258725684756 L698.9604680731494,451.95019357663864 M698.9604680731494,451.95019357663864 L715.549449336602,429.5869872048453 M715.549449336602,429.5869872048453 L727.1430323217863,406.20891949712717 M727.1430323217863,406.20891949712717 L733.564967015282,382.18704497531974 M733.564967015282,382.18704497531974 L734.7214151623244,357.9015555125167 M734.7214151623244,357.9015555125167 L730.6018445710586,333.7357000015682 M730.6018445710586,333.7357000015682 L721.2788394207666,310.06971890215755 M721.2788394207666,310.06971890215755 L706.9064067066442,287.27489354929435 M706.9064067066442,287.27489354929435 L687.7171621494176,265.70784056734306 M687.7171621494176,265.70784056734306 L664.0182191359686,245.70505392624017 M664.0182191359686,245.70505392624017 L636.186104773334,227.57783820728685 M636.2384360294587,205.73350314921566 L664.076739769326,223.8566733512489 M664.076739769326,223.8566733512489 L687.7809625343723,243.85499933801577 M687.7809625343723,243.85499933801577 L706.9744927260119,265.4172468759832 M706.9744927260119,265.4172468759832 L721.3501473859379,288.20699778149685 M721.3501473859379,288.20699778149685 L730.6752573527406,311.86771546215937 M730.6752573527406,311.86771546215937 L734.79577934266,336.0282015943823 M734.79577934266,336.0282015943823 L733.6391107935617,360.30830040513763 M733.6391107935617,360.30830040513763 L727.2157839373987,384.3248480242931 M727.2157839373987,384.3248480242931 L715.6196556788673,407.6977365936885 M715.6196556788673,407.6977365936885 L699.0270132318919,430.05599327230215 M699.0270132318919,430.05599327230215 L677.6941536490837,451.0437447697206 M677.6941536490837,451.0437447697206 L651.9537392462897,470.32609094417387 M651.9537392462897,470.32609094417387 L622.2096945967568,487.594569815809 M622.2096945967568,487.594569815809 L588.9310598403415,502.5723402108008 M588.9310598403415,502.5723402108008 L552.6445885964181,515.0188392541452 M552.6445885964181,515.0188392541452 L513.9262476281249,524.7337988811304 M513.9262476281249,524.7337988811304 L473.39200887992746,531.5607137316684 M473.39200887992746,531.5607137316684 L431.68769844199585,535.389487223264 M431.68769844199585,535.389487223264 L389.47845219273904,536.1583562737809 M389.47845219273904,536.1583562737809 L347.43775158915514,533.8548858413128 M347.43775158915514,533.8548858413128 L306.2362923485535,528.5162597000168 M306.2362923485535,528.5162597000168 L266.5308997835571,520.2285977791993 M266.5308997835571,520.2285977791993 L228.95376749092418,509.1255044088273 M228.95376749092418,509.1255044088273 L194.10207975112138,495.3857343530407 M194.10207975112138,495.3857343530407 L162.52832557411793,479.23016293845217 M162.52832557411793,479.23016293845217 L134.73136444863087,460.9180587345404 M134.73136444863087,460.9180587345404 L111.14856665925134,440.7426707740806 M111.14856665925134,440.7426707740806 L92.14891372671838,419.0263586345256 M92.14891372671838,419.0263586345256 L78.02740643166447,396.1152206745222 M78.02740643166447,396.1152206745222 L69.00074505569899,372.37342041482935 M69.00074505569899,372.37342041482935 L65.20422065733993,348.1772506590401 M65.20422065733993,348.1772506590401 L66.69007820219434,323.9091092422313 M66.69007820219434,323.9091092422313 L73.42710171381037,299.95140873421474 M73.42710171381037,299.95140873421474 L85.30172395059128,276.68055955618763 M85.30172395059128,276.68055955618763 L102.12015921946852,254.46112333649103 M102.12015921946852,254.46112333649103 L123.61192281738909,233.64025093578414 M123.61192281738909,233.64025093578414 L149.4343679836674,214.54235723054745 M149.4343679836674,214.54235723054745 L179.17841515823073,197.46431438372022 M179.17841515823073,197.46431438372022 L212.3750235765628,182.67099773966447 M212.3750235765628,182.67099773966447 L248.5025935113331,170.39138036603526 M248.5025935113331,170.39138036603526 L286.99514197482006,160.81524409178292 M286.99514197482006,160.81524409178292 L327.2508845945568,154.0903712908505 M327.2508845945568,154.0903712908505 L368.6414942914501,150.32044655352365 M368.6414942914501,150.32044655352365 L410.5215465347106,149.56353542227154 M410.5215465347106,149.56353542227154 L452.2382448513055,151.8313211655179 M452.2382448513055,151.8313211655179 L493.1412522820409,157.08886242137555 M493.1412522820409,157.08886242137555 L532.5924965358797,165.2551342912249 M532.5924965358797,165.2551342912249 L569.97575312996,176.20416032324027 M569.97575312996,176.20416032324027 L604.7060195754314,189.76686650434385 M604.7060195754314,189.76686650434385 L636.2384360294587,205.73350314921566 M603.2496451528233,224.77959044208137 L628.5990019616777,241.42982231486843 M628.5990019616777,241.42982231486843 L649.8946688332766,259.8854553940299 M649.8946688332766,259.8854553940299 L666.7539719419899,279.820818189092 M666.7539719419899,279.820818189092 L678.8718409106446,300.8832733673984 M678.8718409106446,300.8832733673984 L686.0264860974519,322.6993687116299 M686.0264860974519,322.6993687116299 L688.0838511618687,344.8812313722293 M688.0838511618687,344.8812313722293 L685.0003301854281,367.0334570581883 M685.0003301854281,367.0334570581883 L676.8241497775256,388.76010465215984 M676.8241497775256,388.76010465215984 L663.6949056123262,409.6718020118754 M663.6949056123262,409.6718020118754 L645.8415820692817,429.39281586814604 M645.8415820692817,429.39281586814604 L623.5788425169505,447.567953888851 M623.5788425169505,447.567953888851 L597.3016270059541,463.8690928635406 M597.3016270059541,463.8690928635406 L567.4783737770048,478.0013535856921 M567.4783737770048,478.0013535856921 L534.6426359112581,489.70862135925165 M534.6426359112581,489.70862135925165 L499.38345749023335,498.7783815089232 M499.38345749023335,498.7783815089232 L462.33471070999695,505.0458155958961 M462.33471070999695,505.0458155958961 L424.163344134132,508.39690142096435 M424.163344134132,508.39690142096435 L385.55719952977074,508.77066935880055 M385.55719952977074,508.77066935880055 L347.21212191236873,506.16029930441584 M347.21212191236873,506.16029930441584 L309.8191536204964,500.61330081013 M309.8191536204964,500.61330081013 L274.051677981741,492.23060218412184 M274.051677981741,492.23060218412184 L240.55291212604925,481.1645917056418 M240.55291212604925,481.1645917056418 L209.92415932512793,467.6162016540569 M209.92415932512793,467.6162016540569 L182.71382704351979,451.83105950130573 M182.71382704351979,451.83105950130573 L159.40744672188754,434.09485305665373 M159.40744672188754,434.09485305665373 L140.4190329228212,414.72795668700667 M140.4190329228212,414.72795668700667 L126.08387576777727,394.0794007750832 M126.08387576777727,394.0794007750832 L116.65278871337449,372.52039881653377 M116.65278871337449,372.52039881653377 L112.2879990020831,350.4375776408747 M112.2879990020831,350.4375776408747 L113.0606558671746,328.225913218406 M113.0606558671746,328.225913218406 L118.95004764753884,306.2815973620416 M118.95004764753884,306.2815973620416 L129.84454468946103,284.9950440516908 M129.84454468946103,284.9950440516908 L145.54392500497264,264.7439296052605 M145.54392500497264,264.7439296052605 L165.76346823099854,245.88668676265195 M165.76346823099854,245.88668676265195 L190.13926387168902,228.75625729685987 M190.13926387168902,228.75625729685987 L218.2349996331905,213.65444270885843 M218.2349996331905,213.65444270885843 L249.54981100249518,200.84678935364417 M249.54981100249518,200.84678935364417 L283.52713570979927,190.55809331889083 M283.52713570979927,190.55809331889083 L319.56456990575066,182.9687103195533 M319.56456990575066,182.9687103195533 L357.0242671235729,178.21152541317392 M357.0242671235729,178.21152541317392 L395.2439777855582,176.36975828107515 M395.2439777855582,176.36975828107515 L433.54843771758203,177.47562999751258 M433.54843771758203,177.47562999751258 L471.2609368378018,181.5097834674311 M471.2609368378018,181.5097834674311 L507.7148642777897,188.40166836599207 M507.7148642777897,188.40166836599207 L542.2652786271015,198.0306262453403 M542.2652786271015,198.0306262453403 L574.2998539926584,210.22794015160343 M574.2998539926584,210.22794015160343 L603.2496451528233,224.77959044208137 M600.8478048988476,247.9894809498794 L571.5830879117341,233.3152376265881 M571.5830879117341,233.3152376265881 L539.1481729125223,221.07594571509765 M539.1481729125223,221.07594571509765 L504.144387688292,211.49581945154625 M504.144387688292,211.49581945154625 L467.2192758239078,204.7501270965717 M467.2192758239078,204.7501270965717 L429.0548309170793,200.9621448158524 M429.0548309170793,200.9621448158524 L390.3552409905496,200.20108058451308 M390.3552409905496,200.20108058451308 L351.834286024525,202.48080893829967 M351.834286024525,202.48080893829967 L314.20257975347914,207.7597101585992 M314.20257975347914,207.7597101585992 L278.15475372025514,215.94134499486358 M278.15475372025514,215.94134499486358 L244.35708796008655,226.87610811776938 M244.35708796008655,226.87610811776938 L213.43543856439567,240.36381978934946 M213.43543856439567,240.36381978934946 L185.9638526019294,256.1572055060519 M185.9638526019294,256.1572055060519 L162.45404651107458,273.9661924098254 M162.45404651107458,273.9661924098254 L143.3458505994356,293.4630246434647 M143.3458505994356,293.4630246434647 L128.9989099537724,314.2880595832914 M128.9989099537724,314.2880595832914 L119.68569985415161,336.0562059330555 M119.68569985415161,336.0562059330555 L115.58604854260079,358.36391244307714 M115.58604854260079,358.36391244307714 L116.78332720165645,380.7964806689322 M116.78332720165645,380.7964806689322 L123.26244572174829,402.93577684552724 M123.26244572174829,402.93577684552724 L134.90946697033797,424.36802928083415 M134.90946697033797,424.36802928083415 L151.51335740343004,444.6916237418938 M151.51335740343004,444.6916237418938 L172.76939577860915,463.52474909808086 M172.76939577860915,463.52474909808086 L198.2845326822489,480.51276936383977 M198.2845326822489,480.51276936383977 L227.58448745731118,495.3351028490149 M227.58448745731118,495.3351028490149 L260.1225054481056,507.71150214606473 M260.1225054481056,507.71150214606473 L295.2896124150213,517.4075842626144 M295.2896124150213,517.4075842626144 L332.426151932296,524.2394808206418 M332.426151932296,524.2394808206418 L370.83444970441843,528.0775222617525 M370.83444970441843,528.0775222617525 L409.7922321381797,528.8487875553972 M409.7922321381797,528.8487875553972 L448.5665699581469,526.538645866633 M448.5665699581469,526.538645866633 L486.4280566961767,521.1909724567686 M486.4280566961767,521.1909724567686 L522.6650190351895,512.9073071836305 M522.6650190351895,512.9073071836305 L556.5971494938007,501.84482276105814 M556.5971494938007,501.84482276105814 L587.588619520427,488.21317164463244 M587.588619520427,488.21317164463244 L615.0602040542195,472.27030370717034 M615.0602040542195,472.27030370717034 L638.5001870727659,454.317378245492 M638.5001870727659,454.317378245492 L657.473916971396,434.69282624462124 M657.473916971396,434.69282624462124 L671.6317215062622,413.76576257168955 M671.6317215062622,413.76576257168955 L680.715152786675,391.92884536346827 M680.715152786675,391.92884536346827 L684.5614238650759,369.5907261109608 M684.5614238650759,369.5907261109608 L683.1059555295234,347.1683588076779 M683.1059555295234,347.1683588076779 L676.3829863606136,325.0791206535574 M676.3829863606136,325.0791206535574 L664.5245384160007,303.7330708798917 M664.5245384160007,303.7330708798917 L647.757325658879,283.52543066916644 M647.757325658879,283.52543066916644 L626.3981823418255,264.82941149825035 M626.3981823418255,264.82941149825035 L600.8478048988476,247.9894809498794 M600.8478048988476,247.9894809498794 L603.2496451528233,224.77959044208137" stroke="black"  stroke-width="4"  fill="red"/>
<path d="M588.8525647243334,363.904022145683 L560.6915663917853,349.79140974590746 M560.6915663917853,349.79140974590746 L529.4270200675493,338.08171511732326 M529.4270200675493,338.08171511732326 L495.66469054880986,328.9992925005707 M495.66469054880986,328.9992925005707 L460.05739194441435,322.7179378656916 M460.05739194441435,322.7179378656916 L423.2925381100554,319.3577401667457 M423.2925381100554,319.3577401667457 L386.0793373208351,318.98288651160266 M386.0793373208351,318.98288651160266 L349.1353629496443,321.60055510516855 M349.1353629496443,321.60055510516855 L313.17313415950264,327.1607206505535 M313.17313415950264,327.1607206505535 L278.88680292418354,335.5571229399406 M278.88680292418354,335.5571229399406 L246.93897115685436,346.6291138095215 M246.93897115685436,346.6291138095215 L217.94832767641344,360.1646583208002 M217.94832767641344,360.1646583208002 L192.47767336461425,375.90409615464006 M192.47767336461425,375.90409615464006 L171.0232353847477,393.54499631612714 M171.0232353847477,393.54499631612714 L154.00487321215394,412.74767212910217 M154.00487321215394,412.74767212910217 L141.75774574701626,433.1415375987602 M141.75774574701626,433.1415375987602 L134.52558819257212,454.33210266648723 M134.52558819257212,454.33210266648723 L132.45539104917316,475.90838483233733 M132.45539104917316,475.90838483233733 L135.59420442876257,497.4508727855598 M135.59420442876257,497.4508727855598 L143.8876072080576,518.5396096538068 M143.8876072080576,518.5396096538068 L157.1803269169798,538.7624048557734 M157.1803269169798,538.7624048557734 L175.2186849392033,557.7230605839235 M175.2186849392033,557.7230605839235 L197.6552364747779,575.0491773110726 M197.6552364747779,575.0491773110726 L224.0551799567073,590.3997509916801 M224.0551799567073,590.3997509916801 L253.90469896453698,603.4720565145934 M253.90469896453698,603.4720565145934 L286.6209721578574,614.0078552941635 M286.6209721578574,614.0078552941635 L321.56357703909885,621.7987355772902 M321.56357703909885,621.7987355772902 L358.04739146250824,626.6903921032366 M358.04739146250824,626.6903921032366 L395.3561364114033,628.585894229514 M395.3561364114033,628.585894229514 L432.75692280695955,627.447650461897 M432.75692280695955,627.447650461897 L469.51502211074194,623.2982405235433 M469.51502211074194,623.2982405235433 L504.908616648702,616.2198886439663 M504.908616648702,616.2198886439663 L538.2434842499356,606.3528336906952 M538.2434842499356,606.3528336906952 L568.866794393897,593.8923099813096 M568.866794393897,593.8923099813096 L596.180174977892,579.0845565948327 M596.180174977892,579.0845565948327 L619.651588021897,562.2217417144252 M619.651588021897,562.2217417144252 L638.8255939497295,543.6359082368139 M638.8255939497295,543.6359082368139 L653.3322651455247,523.6923025916278 M653.3322651455247,523.6923025916278 L662.8939556036746,502.78189205480487 M662.8939556036746,502.78189205480487 L667.3304889369768,481.31363765232186 M667.3304889369768,481.31363765232186 L666.5620793287563,459.70631414882973 M666.5620793287563,459.70631414882973 L660.6104887602667,438.3803199271985 M660.6104887602667,438.3803199271985 L649.5979654176206,417.7495263446772 M649.5979654176206,417.7495263446772 L633.7444547822066,398.21325114668355 M633.7444547822066,398.21325114668355 L613.362847013291,380.1487420340464 M613.362847013291,380.1487420340464 L588.8525647243334,363.904022145683 M588.8525647243334,363.904022145683 L593.6478707399367,317.5651670160364 M593.6478707399367,317.5651670160364 L598.4468961064662,271.1903703921065 M598.4468961064662,271.1903703921065 L603.2496451528233,224.77959044208137 M603.2496451528233,224.77959044208137 L628.5990019616777,241.42982231486843 M628.5990019616777,241.42982231486843 L649.8946688332766,259.8854553940299 M649.8946688332766,259.8854553940299 L666.7539719419899,279.820818189092 M666.7539719419899,279.820818189092 L678.8718409106446,300.8832733673984 M678.8718409106446,300.8832733673984 L686.0264860974519,322.6993687116299 M686.0264860974519,322.6993687116299 L688.0838511618687,344.8812313722293 M688.0838511618687,344.8812313722293 L685.0003301854281,367.0334570581883 M685.0003301854281,367.0334570581883 L676.8241497775256,388.76010465215984 M676.8241497775256,388.76010465215984 L663.6949056123262,409.6718020118754 M663.6949056123262,409.6718020118754 L645.8415820692817,429.39281586814604 M645.8415820692817,429.39281586814604 L623.5788425169505,447.567953888851 M623.5788425169505,447.567953888851 L597.3016270059541,463.8690928635406 M597.3016270059541,463.8690928635406 L567.4783737770048,478.0013535856921 M567.4783737770048,478.0013535856921 L534.6426359112581,489.70862135925165 M534.6426359112581,489.70862135925165 L499.38345749023335,498.7783815089232 M499.38345749023335,498.7783815089232 L462.33471070999695,505.0458155958961 M462.33471070999695,505.0458155958961 L424.163344134132,508.39690142096435 M424.163344134132,508.39690142096435 L385.55719952977074,508.77066935880055 M385.55719952977074,508.77066935880055 L347.21212191236873,506.16029930441584 M347.21212191236873,506.16029930441584 L309.8191536204964,500.61330081013 M309.8191536204964,500.61330081013 L274.051677981741,492.23060218412184 M274.051677981741,492.23060218412184 L240.55291212604925,481.1645917056418 M240.55291212604925,481.1645917056418 L209.92415932512793,467.6162016540569 M209.92415932512793,467.6162016540569 L182.71382704351979,451.83105950130573 M182.71382704351979,451.83105950130573 L159.40744672188754,434.09485305665373 M159.40744672188754,434.09485305665373 L140.4190329228212,414.72795668700667 M140.4190329228212,414.72795668700667 L126.08387576777727,394.0794007750832 M126.08387576777727,394.0794007750832 L116.65278871337449,372.52039881653377 M116.65278871337449,372.52039881653377 L112.2879990020831,350.4375776408747 M112.2879990020831,350.4375776408747 L113.0606558671746,328.225913218406 M113.0606558671746,328.225913218406 L118.95004764753884,306.2815973620416 M118.95004764753884,306.2815973620416 L129.84454468946103,284.9950440516908 M129.84454468946103,284.9950440516908 L145.54392500497264,264.7439296052605 M145.54392500497264,264.7439296052605 L165.76346823099854,245.88668676265195 M165.76346823099854,245.88668676265195 L190.13926387168902,228.75625729685987 M190.13926387168902,228.75625729685987 L218.2349996331905,213.65444270885843 M218.2349996331905,213.65444270885843 L249.54981100249518,200.84678935364417 M249.54981100249518,200.84678935364417 L283.52713570979927,190.55809331889083 M283.52713570979927,190.55809331889083 L319.56456990575066,182.9687103195533 M319.56456990575066,182.9687103195533 L357.0242671235729,178.21152541317392 M357.0242671235729,178.21152541317392 L395.2439777855582,176.36975828107515 M395.2439777855582,176.36975828107515 L433.54843771758203,177.47562999751258 M433.54843771758203,177.47562999751258 L471.2609368378018,181.5097834674311 M471.2609368378018,181.5097834674311 L507.7148642777897,188.40166836599207 M507.7148642777897,188.40166836599207 L542.2652786271015,198.0306262453403 M542.2652786271015,198.0306262453403 L574.2998539926584,210.22794015160343 M574.2998539926584,210.22794015160343 L603.2496451528233,224.77959044208137 M579.4318637279832,369.357551206824 L552.0337437874961,355.66826477939367 M552.0337437874961,355.66826477939367 L521.5634463025956,344.37238907162845 M521.5634463025956,344.37238907162845 L488.63858784056276,335.6964248837806 M488.63858784056276,335.6964248837806 L453.92509673554656,329.8141727421908 M453.92509673554656,329.8141727421908 L418.124188615565,326.84333795441546 M418.124188615565,326.84333795441546 L381.9584344059448,326.84333795441546 M381.9584344059448,326.84333795441546 L346.1575262859632,329.8141727421908 M346.1575262859632,329.8141727421908 L311.44403518094697,335.69642488378054 M311.44403518094697,335.69642488378054 L278.51917671891414,344.37238907162833 M278.51917671891414,344.37238907162833 L248.04887923401367,355.66826477939367 M248.04887923401367,355.66826477939367 L220.6507592935262,369.35755120682404 M220.6507592935262,369.35755120682404 L196.88157312148945,385.16528390311584 M196.88157312148945,385.16528390311584 L177.226127572093,402.7734226726811 M177.226127572093,402.7734226726811 L162.08718435791408,421.8269283945856 M162.08718435791408,421.8269283945856 L151.7772189181773,441.9408260974011 M151.7772189181773,441.9408260974011 L146.5115720371945,462.7077007002448 M146.5115720371945,462.7077007002448 L146.40369557757435,483.7058794531282 M146.40369557757435,483.7058794531282 L151.4623288344988,504.5079415592561 M151.4623288344988,504.5079415592561 L161.5907908364031,524.6893636779338 M161.5907908364031,524.6893636779338 L176.588445235022,543.8372603401518 M176.588445235022,543.8372603401518 L196.15426261195083,561.5590098669034 M196.15426261195083,561.5590098669034 L219.89274294923058,577.4903689816019 M219.89274294923058,577.4903689816019 L247.32156690287,591.3032822099514 M247.32156690287,591.3032822099514 L277.8814913169806,602.7127693677002 M277.8814913169806,602.7127693677002 L310.94763832438673,611.4831257028944 M310.94763832438673,611.4831257028944 L345.84263365590454,617.4329032168165 M345.84263365590454,617.4329032168165 L381.8505569970711,620.4389260767617 M381.8505569970711,620.4389260767617 L418.23206602443867,620.4389260767617 M418.23206602443867,620.4389260767617 L454.23998936560525,617.4329032168165 M454.23998936560525,617.4329032168165 L489.13498469712306,611.4831257028945 M489.13498469712306,611.4831257028945 L522.2011317045292,602.7127693677003 M522.2011317045292,602.7127693677003 L552.7610561186398,591.3032822099515 M552.7610561186398,591.3032822099515 L580.1898800722795,577.4903689816018 M580.1898800722795,577.4903689816018 L603.928360409559,561.5590098669034 M603.928360409559,561.5590098669034 L623.4941777864877,543.8372603401518 M623.4941777864877,543.8372603401518 L638.4918321851067,524.6893636779339 M638.4918321851067,524.6893636779339 L648.6202941870109,504.5079415592561 M648.6202941870109,504.5079415592561 L653.6789274439354,483.7058794531282 M653.6789274439354,483.7058794531282 L653.5710509843152,462.7077007002448 M653.5710509843152,462.7077007002448 L648.3054041033325,441.9408260974011 M648.3054041033325,441.9408260974011 L637.9954386635957,421.82692839458565 M637.9954386635957,421.82692839458565 L622.8564954494168,402.7734226726811 M622.8564954494168,402.7734226726811 L603.2010499000203,385.1652839031159 M603.2010499000203,385.1652839031159 L579.4318637279832,369.357551206824 M589.1037548616464,232.94672400961923 L613.6467387964957,249.16981065174406 M613.6467387964957,249.16981065174406 L634.0555849323727,267.2102798070938 M634.0555849323727,267.2102798070938 L649.9303332962704,286.72057626152116 M649.9303332962704,286.72057626152116 L660.9576688898816,307.3239579980483 M660.9576688898816,307.3239579980483 L666.9173430443401,328.62164080808066 M666.9173430443401,328.62164080808066 L667.6869331334215,350.20030444553004 M667.6869331334215,350.20030444553004 L663.244636083043,371.64010838942767 M663.244636083043,371.64010838942767 L653.6703323145523,392.52283164672417 M653.6703323145523,392.52283164672417 L639.1444278907165,412.4400521296542 M639.1444278907165,412.4400521296542 L619.944930496276,431.00131608011645 M619.944930496276,431.00131608011645 L596.4422551826844,447.8418553020966 M596.4422551826844,447.8418553020966 L569.0924461547424,462.6300604030437 M569.0924461547424,462.6300604030437 L538.428251542849,475.0741436612893 M538.428251542849,475.0741436612893 L505.04884538538323,484.92818593681807 M505.04884538538323,484.92818593681807 L469.6079357747185,491.9972061176212 M469.6079357747185,491.9972061176212 L432.80068011294287,496.1411469654122 M432.80068011294287,496.1411469654122 L395.34986982027436,497.2778906439505 M395.34986982027436,497.2778906439505 L357.9912252288423,495.38488663468 M357.9912252288423,495.38488663468 L321.45862463838034,490.4996778082037 M321.45862463838034,490.4996778082037 L286.4693130756562,482.71906936106495 M286.4693130756562,482.71906936106495 L253.70933523009532,472.1971666464709 M253.70933523009532,472.1971666464709 L223.81997391412102,459.14211100894863 M223.81997391412102,459.14211100894863 L197.38483085388845,443.8118053292336 M197.38483085388845,443.8118053292336 L174.91840747157121,426.508580267792 M174.91840747157121,426.508580267792 L156.85608162090625,407.57299435658894 M156.85608162090625,407.57299435658894 L143.5457548294687,387.37695915119605 M143.5457548294687,387.37695915119605 L135.24143485525565,366.31615164692005 M135.24143485525565,366.31615164692005 L132.09859025221954,344.80221876840426 M132.09859025221954,344.80221876840426 L134.17170276568618,323.25456156971325 M134.17170276568618,323.25456156971325 L141.4136475453277,302.0921341909365 M141.4136475453277,302.0921341909365 L153.677226960776,281.7253713981372 M153.677226960776,281.7253713981372 L170.71837140533373,262.54823572772796 M170.71837140533373,262.54823572772796 L192.20146811566374,244.93081603310412 M192.20146811566374,244.93081603310412 L217.70609378721096,229.2123419465854 M217.70609378721096,229.2123419465854 L246.73535887163698,215.69483645192315 M246.73535887163698,215.69483645192315 L278.7257146528619,204.6376087350664 M278.7257146528619,204.6376087350664 L313.0576530725724,196.25240643621967 M313.0576530725724,196.25240643621967 L349.0676970977786,190.69965970858524 M349.0676970977786,190.69965970858524 L386.0607795966229,188.08548439537748 M386.0607795966229,188.08548439537748 L423.3234429904428,188.45983778540617 M423.3234429904428,188.45983778540617 L460.13716909541483,191.81555143370758 M460.13716909541483,191.81555143370758 L495.7918154082527,198.0885254835272 M495.7918154082527,198.0885254835272 L529.5990614615554,207.1588340938291 M529.5990614615554,207.1588340938291 L560.9052304627548,218.85291706570894 M560.9052304627548,218.85291706570894 L589.1037548616464,232.94672400961923 M579.4318637279832,369.357551206824 L582.6532144521375,323.9242096817883 M582.6532144521375,323.9242096817883 L585.8771651121779,278.4539558885102 M585.8771651121779,278.4539558885102 L589.1037548616464,232.94672400961923" stroke="black"  stroke-width="4"  fill="red"/>
<path d="M588.8525647243334,363.904022145683 L588.8107645797213,385.6964143895633 M588.8107645797213,385.6964143895633 L560.6560108833893,371.5806822929013 M560.6560108833893,371.5806822929013 L529.3983909140463,359.86839779061665 M529.3983909140463,359.86839779061665 L495.64353588322746,350.78396553396055 M495.64353588322746,350.78396553396055 L460.04411634047716,344.5012206090382 M460.04411634047716,344.5012206090382 L423.28739527166067,341.1402790316415 M423.28739527166067,341.1402790316415 L386.08242548608695,340.7653423853373 M386.08242548608695,340.7653423853373 L349.1466231296557,343.3835904942907 M349.1466231296557,343.3835904942907 L313.1923512027098,348.9449867784908 M313.1923512027098,348.9449867784908 L278.9136093868996,357.34324707887214 M278.9136093868996,357.34324707887214 L246.97285396646785,368.4176870621011 M246.97285396646785,368.4176870621011 L217.98863743100782,381.9562241251724 M217.98863743100782,381.9562241251724 L192.5236362161302,397.69913969438034 M192.5236362161302,397.69913969438034 L171.07396725926222,415.34393508466457 M171.07396725926222,415.34393508466457 L154.05939621118188,434.5508477960092 M154.05939621118188,434.5508477960092 L141.81500644748849,454.9492093586739 M141.81500644748849,454.9492093586739 L134.58447752649386,476.1444422002844 M134.58447752649386,476.1444422002844 L132.51476548336836,497.7254729555199 M132.51476548336836,497.7254729555199 L135.65290799610432,519.2726978842484 M135.65290799610432,519.2726978842484 L143.94449403249018,540.3660679105938 M143.94449403249018,540.3660679105938 L157.2342837551747,560.5933022686507 M157.2342837551747,560.5933022686507 L175.26865332194217,579.5581167572001 M175.26865332194217,579.5581167572001 L197.70023393759055,596.8880309042763 M197.70023393759055,596.8880309042763 L224.09431993464452,612.2419667635335 M224.09431993464452,612.2419667635335 L253.93720888231914,625.3171337940377 M253.93720888231914,625.3171337940377 L286.646209301643,635.855237725467 M286.646209301643,635.855237725467 L321.5810418564969,643.6478219514164 M321.5810418564969,643.6478219514164 L358.0567379172535,648.5405480522538 M358.0567379172535,648.5405480522538 L395.35717921600445,650.4364645777284 M395.35717921600445,650.4364645777284 L432.74964128488307,649.2979719684184 M432.74964128488307,649.2979719684184 L469.49956062451236,645.1476547916457 M469.49956062451236,645.1476547916457 L504.8852815968707,638.0677549243961 M504.8852815968707,638.0677549243961 L538.2127376583361,628.1985413612101 M538.2127376583361,628.1985413612101 L568.8292443213224,615.7352904193868 M568.8292443213224,615.7352904193868 L596.1365629304394,600.924294247339 M596.1365629304394,600.924294247339 L619.6027736800442,584.0577841373577 M619.6027736800442,584.0577841373577 L638.7725376095709,565.4678748946458 M638.7725376095709,565.4678748946458 L653.2760082177592,545.5198922779875 M653.2760082177592,545.5198922779875 L662.8355996874499,524.6048887466645 M662.8355996874499,524.6048887466645 L667.271173853988,503.13191472817493 M667.271173853988,503.13191472817493 L666.5029606467047,481.5198368508036 M666.5029606467047,481.5198368508036 L660.5527152118061,460.1891460410951 M660.5527152118061,460.1891460410951 L649.542656710158,439.5538050815751 M649.542656710158,439.5538050815751 L633.6926801729378,420.01322022888303 M633.6926801729378,420.01322022888303 L613.3156050648395,401.94472307565593 M613.3156050648395,401.94472307565593 L588.8107645797213,385.6964143895633 M588.8525647243334,363.904022145683 L613.362847013291,380.1487420340464 M613.362847013291,380.1487420340464 L633.7444547822066,398.21325114668355 M633.7444547822066,398.21325114668355 L649.5979654176206,417.7495263446772 M649.5979654176206,417.7495263446772 L660.6104887602667,438.3803199271985 M660.6104887602667,438.3803199271985 L666.5620793287563,459.70631414882973 M666.5620793287563,459.70631414882973 L667.3304889369768,481.31363765232186 M667.3304889369768,481.31363765232186 L662.8939556036746,502.78189205480487 M662.8939556036746,502.78189205480487 L653.3322651455247,523.6923025916278 M653.3322651455247,523.6923025916278 L638.8255939497295,543.6359082368139 M638.8255939497295,543.6359082368139 L619.651588021897,562.2217417144252 M619.651588021897,562.2217417144252 L596.180174977892,579.0845565948327 M596.180174977892,579.0845565948327 L568.866794393897,593.8923099813096 M568.866794393897,593.8923099813096 L538.2434842499356,606.3528336906952 M538.2434842499356,606.3528336906952 L504.908616648702,616.2198886439663 M504.908616648702,616.2198886439663 L469.51502211074194,623.2982405235433 M469.51502211074194,623.2982405235433 L432.75692280695955,627.447650461897 M432.75692280695955,627.447650461897 L395.3561364114033,628.585894229514 M395.3561364114033,628.585894229514 L358.04739146250824,626.6903921032366 M358.04739146250824,626.6903921032366 L321.56357703909885,621.7987355772902 M321.56357703909885,621.7987355772902 L286.6209721578574,614.0078552941635 M286.6209721578574,614.0078552941635 L253.90469896453698,603.4720565145934 M253.90469896453698,603.4720565145934 L224.0551799567073,590.3997509916801 M224.0551799567073,590.3997509916801 L197.6552364747779,575.0491773110726 M197.6552364747779,575.0491773110726 L175.2186849392033,557.7230605839235 M175.2186849392033,557.7230605839235 L157.1803269169798,538.7624048557734 M157.1803269169798,538.7624048557734 L143.8876072080576,518.5396096538068 M143.8876072080576,518.5396096538068 L135.59420442876257,497.4508727855598 M135.59420442876257,497.4508727855598 L132.45539104917316,475.90838483233733 M132.45539104917316,475.90838483233733 L134.52558819257212,454.33210266648723 M134.52558819257212,454.33210266648723 L141.75774574701626,433.1415375987602 M141.75774574701626,433.1415375987602 L154.00487321215394,412.74767212910217 M154.00487321215394,412.74767212910217 L171.0232353847477,393.54499631612714 M171.0232353847477,393.54499631612714 L192.47767336461425,375.90409615464006 M192.47767336461425,375.90409615464006 L217.94832767641344,360.1646583208002 M217.94832767641344,360.1646583208002 L246.93897115685436,346.6291138095215 M246.93897115685436,346.6291138095215 L278.88680292418354,335.5571229399406 M278.88680292418354,335.5571229399406 L313.17313415950264,327.1607206505535 M313.17313415950264,327.1607206505535 L349.1353629496443,321.60055510516855 M349.1353629496443,321.60055510516855 L386.0793373208351,318.98288651160266 M386.0793373208351,318.98288651160266 L423.2925381100554,319.3577401667457 M423.2925381100554,319.3577401667457 L460.05739194441435,322.7179378656916 M460.05739194441435,322.7179378656916 L495.66469054880986,328.9992925005707 M495.66469054880986,328.9992925005707 L529.4270200675493,338.08171511732326 M529.4270200675493,338.08171511732326 L560.6915663917853,349.79140974590746 M560.6915663917853,349.79140974590746 L588.8525647243334,363.904022145683 M503.99108225926125,413.02930071827313 L521.8159811227914,425.492926882234 M521.8159811227914,425.492926882234 L535.2522452001406,439.68654580175956 M535.2522452001406,439.68654580175956 L543.8114971002844,455.09967333967506 M543.8114971002844,455.09967333967506 L547.1801926240277,471.176967775044 M547.1801926240277,471.176967775044 L545.23159495489,487.33807176612004 M545.23159495489,487.33807176612004 L538.0310084749804,502.9984620592727 M538.0310084749804,502.9984620592727 L525.8342191955522,517.5906521423223 M525.8342191955522,517.5906521423223 L509.078857425502,530.5849012419511 M509.078857425502,530.5849012419511 L488.36901854020294,541.5086899264857 M488.36901854020294,541.5086899264857 L464.4537063294646,549.9642379146392 M464.4537063294646,549.9642379146392 L438.19963369126503,555.6432748469115 M438.19963369126503,555.6432748469115 L410.55960085262245,558.3385859137991 M410.55960085262245,558.3385859137991 L382.5374497912205,557.9517747371033 M382.5374497912205,557.9517747371033 L355.1511631622608,554.4969601451122 M355.1511631622608,554.4969601451122 L329.3952491926575,548.1002564615777 M329.3952491926575,548.1002564615777 L306.20413302309527,538.9950307321182 M306.20413302309527,538.9950307321182 L286.41793210453784,527.5131374606315 M286.41793210453784,527.5131374606315 L270.75176022057406,514.0725517496761 M270.75176022057406,514.0725517496761 L259.7698849292528,499.1618328992437 M259.7698849292528,499.1618328992437 L253.86565963736695,483.32203530339496 M253.86565963736695,483.32203530339496 L253.2477889950984,467.1268795110533 M253.2477889950984,467.1268795110533 L257.9334511707161,451.16184797430066 M257.9334511707161,451.16184797430066 L267.748433757308,436.00296086588463 M267.748433757308,436.00296086588463 L282.3341234461755,422.196147431168 M282.3341234461755,422.196147431168 L301.16100474784,410.23776789850416 M301.16100474784,410.23776789850416 L323.5481668820158,400.5570769299828 M323.5481668820158,400.5570769299828 L348.6879212343681,393.501097108517 M348.6879212343681,393.501097108517 L375.6748329210194,389.3225203062578 M375.6748329210194,389.3225203062578 L403.53798084012885,388.17089376072255 M403.53798084012885,388.17089376072255 L431.27539212137316,390.08740592479865 M431.27539212137316,390.08740592479865 L457.8895634001574,395.0034977787536 M457.8895634001574,395.0034977787536 L482.4227628787934,402.74320542573855 M482.4227628787934,402.74320542573855 L503.99108225926125,413.02930071827313 M503.96804629898463,434.8325384993336 L482.4045104096849,424.5441741104454 M482.4045104096849,424.5441741104454 L457.87674852919685,416.8027584689288 M457.87674852919685,416.8027584689288 L431.26847366177293,411.88558145472894 M431.26847366177293,411.88558145472894 L403.537206345591,409.96864618784974 M403.537206345591,409.96864618784974 L375.68023009866334,411.1205269785805 M375.68023009866334,411.1205269785805 L348.6992969802272,415.30002618728884 M348.6992969802272,415.30002618728884 L323.56511398388363,422.3575632356119 M323.56511398388363,422.3575632356119 L301.1829160407065,432.04038996590293 M301.1829160407065,432.04038996590293 L282.3602129907125,444.0014066023686 M282.3602129907125,444.0014066023686 L267.7777643971437,457.8112631646079 M267.7777643971437,457.8112631646079 L257.96496757041086,472.97348943378495 M257.96496757041086,472.97348943378495 L253.28035510380514,488.9420354726593 M253.28035510380514,488.9420354726593 L253.89809931059648,505.14075408437805 M253.89809931059648,505.14075408437805 L259.80102430699975,520.9840340419007 M259.80102430699975,520.9840340419007 L270.78047035448634,535.898028935594 M270.78047035448634,535.898028935594 L286.4431702598534,549.3415659726909 M286.4431702598534,549.3415659726909 L306.22498108681225,560.8259791878862 M306.22498108681225,560.8259791878862 L329.41094771319007,569.9332024084356 M329.41094771319007,569.9332024084356 L355.16113965718245,576.3313089456249 M355.16113965718245,576.3313089456249 L382.54134016346654,579.7868810559675 M382.54134016346654,579.7868810559675 L410.5572630610175,580.1737770399591 M410.5572630610175,580.1737770399591 L438.1911530970627,577.4778750054942 M438.1911530970627,577.4778750054942 L464.43939247546933,571.7975926870912 M464.43939247546933,571.7975926870912 L488.34939353309574,563.3401898996225 M488.34939353309574,563.3401898996225 L509.05463637554743,552.4140040335271 M509.05463637554743,552.4140040335271 L525.8062835400601,539.416902000754 M525.8062835400601,539.416902000754 L538.0003732476821,524.82150634112 M538.0003732476821,524.82150634112 L545.1993713366891,509.15767368169315 M545.1993713366891,509.15767368169315 L547.1475472194657,492.9930149484892 M547.1475472194657,492.9930149484892 L543.7796094891079,476.91218187512663 M543.7796094891079,476.91218187512663 L535.2222653601125,461.4956597011716 M535.2222653601125,461.4956597011716 L521.788988225527,447.2989128446834 M521.788988225527,447.2989128446834 L503.96804629898463,434.8325384993336 M503.99108225926125,413.02930071827313 L503.96804629898463,434.8325384993336" stroke="black"  stroke-width="4"  fill="red"/></svg>