<svg viewBox="0 0 800 800" xmlns="http://www.w3.org/2000/svg"><path d="" stroke="black"  stroke-width="4"  fill="red"/>
<path d="M181.27845241021126,498.72994699614526 L181.47325691623126,592.5538292672114 M181.47325691623126,592.5538292672114 L212.51583355040515,608.3326646024349 M212.51583355040515,608.3326646024349 L246.93364770937637,621.5730645803436 M246.93364770937637,621.5730645803436 L284.10964888497745,632.0347900904897 M284.10964888497745,632.0347900904897 L323.3757986423995,639.5277807684827 M323.3757986423995,639.5277807684827 L364.0254703940597,643.9157494185196 M364.0254703940597,643.9157494185196 L405.32630037042355,645.1188642895544 M405.32630037042355,645.1188642895544 L446.53388921914916,643.1152044266541 M446.53388921914916,643.1152044266541 L486.90556190723197,637.9412550679264 M486.90556190723197,637.9412550679264 L525.7141407450825,629.6911498336825 M525.7141407450825,629.6911498336825 L562.2614148559015,618.5148985559871 M562.2614148559015,618.5148985559871 L595.8910347618227,604.61550746756 M595.8910347618227,604.61550746756 L626.0004426152448,588.245057004247 M626.0004426152448,588.245057004247 L652.0518891255697,569.6999750166767 M652.0518891255697,569.6999750166767 L673.5820097946843,549.3154016915577 M673.5820097946843,549.3154016915577 L690.2099523314183,527.4589041987122 M690.2099523314183,527.4589041987122 L701.6440152567486,504.5236888753536 M701.6440152567486,504.5236888753536 L707.6863914418235,480.9212932895449 M707.6863914418235,480.9212932895449 L708.2363719840989,457.07416658773286 M708.2363719840989,457.07416658773286 L703.2914966293758,433.40795831516516 M703.2914966293758,433.40795831516516 L692.9471631257942,410.34398443932315 M692.9471631257942,410.34398443932315 L677.3944243122311,388.2917585249337 M677.3944243122311,388.2917585249337 L656.9160893271029,367.64179924939697 M656.9160893271029,367.64179924939697 L631.8813148097539,348.7589275957511 M631.8813148097539,348.7589275957511 L602.7387295432426,331.97601685071606 M602.7387295432426,331.97601685071606 L570.0083438871875,317.5883024141193 M570.0083438871875,317.5883024141193 L534.2722951860171,305.84842507868996 M534.2722951860171,305.84842507868996 L496.1645297876092,296.9622383543186 M496.1645297876092,296.9622383543186 L456.3597557696875,291.0853755803419 M456.3597557696875,291.0853755803419 L415.56186847993285,288.3206840846097 M415.56186847993285,288.3206840846097 L374.49178537542014,288.7165129530362 M374.49178537542014,288.7165129530362 L333.8750414013214,292.2659233633063 M333.8750414013214,292.2659233633063 L294.4294744650805,298.906854117703 M294.4294744650805,298.906854117703 L256.8527607570943,308.52305973878975 M256.8527607570943,308.52305973878975 L221.81054737248508,320.9460947874893 M221.81054737248508,320.9460947874893 L189.92480770467597,335.95804021225916 M189.92480770467597,335.95804021225916 L161.7630530236282,353.29517529740014 M161.7630530236282,353.29517529740014 L137.8283045899496,372.6523730873571 M137.8283045899496,372.6523730873571 L118.55002174142766,393.6882166159097 M118.55002174142766,393.6882166159097 L104.27638099783593,416.0308600511873 M104.27638099783593,416.0308600511873 L95.26769719579534,439.2843674055489 M95.26769719579534,439.2843674055489 L91.6913792074788,463.0355971772784 M91.6913792074788,463.0355971772784 L93.61853684543053,486.8614496169721 M93.61853684543053,486.8614496169721 L101.02210187181538,510.33635913588614 M101.02210187181538,510.33635913588614 L113.77691353028558,533.0398833395928 M113.77691353028558,533.0398833395928 L131.661319056759,554.5643897046825 M131.661319056759,554.5643897046825 L154.3608148928452,574.5223998898485 M154.3608148928452,574.5223998898485 L181.47325691623126,592.5538292672114 M181.27845241021126,498.72994699614526 L154.1419326291266,480.7143927734793 M154.1419326291266,480.7143927734793 L131.4223126334275,460.77396666102953 M131.4223126334275,460.77396666102953 L113.52209040759175,439.2684395221514 M113.52209040759175,439.2684395221514 L100.75604347520192,416.58495099706084 M100.75604347520192,416.58495099706084 L93.34601444040243,393.1307760930592 M93.34601444040243,393.1307760930592 L91.41726705247993,369.3259871603405 M91.41726705247993,369.3259871603405 L94.99688486295122,345.5957738912158 M94.99688486295122,345.5957738912158 L104.0136862398769,322.3628609707791 M104.0136862398769,322.3628609707791 L118.30010563903676,300.04002236304564 M118.30010563903676,300.04002236304564 L137.59559027040143,279.02284061233286 M137.59559027040143,279.02284061233286 L161.55164932472323,259.68282852687844 M161.55164932472323,259.68282852687844 L189.73843902219926,242.3610963722216 M189.73843902219926,242.3610963722216 L221.6524905591509,227.36249624717016 M221.6524905591509,227.36249624717016 L256.7257901130724,214.95051073252762 M256.7257901130724,214.95051073252762 L294.3358155088836,205.3428616986019 M294.3358155088836,205.3428616986019 L333.81633394630944,198.70784191682037 M333.81633394630944,198.70784191682037 L374.46905654117654,195.1615913797819 M374.46905654117654,195.1615913797819 L415.5755157355016,194.76611492540022 M415.5755157355016,194.76611492540022 L456.40954047226626,197.52834507311184 M456.40954047226626,197.52834507311184 L496.2495810580464,203.39997664933102 M496.2495810580464,203.39997664933102 L534.3911242163076,212.27825567503794 M534.3911242163076,212.27825567503794 L570.1588685236968,224.0076899149816 M570.1588685236968,224.0076899149816 L602.9183087146794,238.38261220743738 M602.9183087146794,238.38261220743738 L632.0867924555265,255.1506100151937 M632.0867924555265,255.1506100151937 L657.1438473245549,274.0167140547645 M657.1438473245549,274.0167140547645 L677.6404436174707,294.64835027950943 M677.6404436174707,294.64835027950943 L693.2070922551139,316.6810246941525 M693.2070922551139,316.6810246941525 L703.560726552803,339.72456751979666 M703.560726552803,339.72456751979666 L708.5101162591758,363.3698298195829 M708.5101162591758,363.3698298195829 L707.9597703482029,387.19586944294406 M707.9597703482029,387.19586944294406 L701.912142489504,410.7774131536773 M701.912142489504,410.7774131536773 L690.4680226647154,433.6923839468153 M690.4680226647154,433.6923839468153 L673.8253863256258,455.52960550741295 M673.8253863256258,455.52960550741295 L652.2761882073961,475.8962154890305 M652.2761882073961,475.8962154890305 L626.2016150084498,494.4249672517793 M626.2016150084498,494.4249672517793 L596.0654411820902,510.7810119971814 M596.0654411820902,510.7810119971814 L562.405894437496,524.6681789197036 M562.405894437496,524.6681789197036 L525.8260709625739,535.8346056685642 M525.8260709625739,535.8346056685642 L486.98290850615535,544.0774613045247 M486.98290850615535,544.0774613045247 L446.5752451901138,549.2468653349765 M446.5752451901138,549.2468653349765 L405.3309129799391,551.248765218744 M405.3309129799391,551.248765218744 L363.993255667039,550.046707126215 M363.993255667039,550.046707126215 L323.30734297465636,545.6625931425024 M323.30734297465636,545.6625931425024 L284.00619779167846,538.176186270767 M284.00619779167846,538.176186270767 L246.79708180130672,527.7236562341615 M246.79708180130672,527.7236562341615 L212.3486325792772,514.4948993502946 M212.3486325792772,514.4948993502946 L181.27845241021126,498.72994699614526 M247.69613454890384,554.2351633475168 L274.09530049875224,567.2686277279195 M274.09530049875224,567.2686277279195 L303.77787844278646,577.6800005954838 M303.77787844278646,577.6800005954838 L335.97219370474045,585.1964044722401 M335.97219370474045,585.1964044722401 L369.83991389990047,589.6206423873967 M369.83991389990047,589.6206423873967 L404.49818710801037,590.8365711014972 M404.49818710801037,590.8365711014972 L439.0431448237537,588.8122499873972 M439.0431448237537,588.8122499873972 L472.5739354769666,583.6008447315728 M472.5739354769666,583.6008447315728 L504.21667404404633,575.3391487945433 M504.21667404404633,575.3391487945433 L533.14767746553,564.2438624159822 M533.14767746553,564.2438624159822 L558.6151866535564,550.6056972852571 M558.6151866535564,550.6056972852571 L579.9591314833698,534.7815016643887 M579.9591314833698,534.7815016643887 L596.6282435839055,517.184645905707 M596.6282435839055,517.184645905707 L608.1941698673089,498.2739288092646 M608.1941698673089,498.2739288092646 L614.3622397165458,478.54141496211764 M614.3622397165458,478.54141496211764 L614.9785594940929,458.4994406480179 M614.9785594940929,458.4994406480179 L610.0334442664862,438.6672026063514 M610.0334442664862,438.6672026063514 L599.660944074432,419.55733184097807 M599.660944074432,419.55733184097807 L584.1348698062735,401.6626901693428 M584.1348698062735,401.6626901693428 L563.8610529968342,385.44383764382826 M563.8610529968342,385.44383764382826 L539.3665250957113,371.3174070695961 M539.3665250957113,371.3174070695961 L511.2856630976272,359.64565528115185 M511.2856630976272,359.64565528115185 L480.3437635069576,350.72745072485293 M480.3437635069576,350.72745072485293 L447.338445026364,344.7908791543398 M447.338445026364,344.7908791543398 L413.119383555827,341.98767147380806 M413.119383555827,341.98767147380806 L378.56686346680857,342.3894116280913 M378.56686346680857,342.3894116280913 L344.5695334334608,345.98585058929797 M344.5695334334608,345.98585058929797 L312.0020833112403,352.6851107407615 M312.0020833112403,352.6851107407615 L281.7031645563967,362.31596516934934 M281.7031645563967,362.31596516934934 L254.4541378822338,374.63202114823656 M254.4541378822338,374.63202114823656 L230.95924057457876,389.31780404744563 M230.95924057457876,389.31780404744563 L211.8274629235354,405.99656728613417 M211.8274629235354,405.99656728613417 L197.55673333771364,424.2396629937777 M197.55673333771364,424.2396629937777 L188.52077829103962,443.57732637974436 M188.52077829103962,443.57732637974436 L184.95902191385454,463.51053888253773 M184.95902191385454,463.51053888253773 L186.9698505670442,483.52378601987857 M186.9698505670442,483.52378601987857 L194.50739082360977,503.09831925617027 M194.50739082360977,503.09831925617027 L207.38210963100602,521.7256194181869 M207.38210963100602,521.7256194181869 L225.26509976977778,538.9207528096578 M225.26509976977778,538.9207528096578 L247.69613454890384,554.2351633475168 M272.00952922984465,446.3230589378388 L251.7436428979434,432.3298021707574 M251.7436428979434,432.3298021707574 L236.0023120402485,416.51911808259916 M236.0023120402485,416.51911808259916 L225.26099425642408,399.37422016222087 M225.26099425642408,399.37422016222087 L219.84176120703145,381.41811367110074 M219.84176120703145,381.41811367110074 L219.90396566290747,363.1974980178172 M219.90396566290747,363.1974980178172 L225.44010495186475,345.26596891818093 M225.44010495186475,345.26596891818093 L236.2767256350577,328.16726139978323 M236.2767256350577,328.16726139978323 L252.0802612214784,312.4188095543488 M252.0802612214784,312.4188095543488 L272.3677512157578,298.4963207681959 M272.3677512157578,298.4963207681959 L296.52181770278975,286.8196368384866 M296.52181770278975,286.8196368384866 L323.8095363527751,277.7403643437585 M323.8095363527751,277.7403643437585 L353.4045791883905,271.5315735572837 M353.4045791883905,271.5315735572837 L384.412024108792,268.3798542718253 M384.412024108792,268.3798542718253 L415.89495630188696,268.3798542718253 M415.89495630188696,268.3798542718253 L446.9024012222884,271.5315735572837 M446.9024012222884,271.5315735572837 L476.49744405790386,277.7403643437585 M476.49744405790386,277.7403643437585 L503.78516270788924,286.8196368384866 M503.78516270788924,286.8196368384866 L527.9392291949215,298.4963207681961 M527.9392291949215,298.4963207681961 L548.2267191892006,312.4188095543488 M548.2267191892006,312.4188095543488 L564.0302547756213,328.16726139978323 M564.0302547756213,328.16726139978323 L574.8668754588142,345.26596891818093 M574.8668754588142,345.26596891818093 L580.4030147477715,363.1974980178172 M580.4030147477715,363.1974980178172 L580.4652192036475,381.41811367110074 M580.4652192036475,381.41811367110074 L575.0459861542548,399.37422016222087 M575.0459861542548,399.37422016222087 L564.3046683704305,416.51911808259916 M564.3046683704305,416.51911808259916 L548.5633375127355,432.3298021707575 M548.5633375127355,432.3298021707575 L528.297451180834,446.323058937839 M528.297451180834,446.323058937839 L504.12178148253554,458.07051093347076 M504.12178148253554,458.07051093347076 L476.77185834385557,467.21201589751433 M476.77185834385557,467.21201589751433 L447.0815125255097,473.4669973897992 M447.0815125255097,473.4669973897992 L415.95716099779423,476.64329420091315 M415.95716099779423,476.64329420091315 L384.34981941288476,476.64329420091315 M384.34981941288476,476.64329420091315 L353.2254678851693,473.4669973897992 M353.2254678851693,473.4669973897992 L323.5351220668235,467.2120158975142 M323.5351220668235,467.2120158975142 L296.18519892814345,458.07051093347076 M296.18519892814345,458.07051093347076 L272.00952922984465,446.3230589378388 M247.69613454890384,554.2351633475168 L255.7972382626077,518.2793944425272 M255.7972382626077,518.2793944425272 L263.9017056903481,482.30869047610827 M263.9017056903481,482.30869047610827 L272.00952922984465,446.3230589378388" stroke="black"  stroke-width="4"  fill="red"/>
<path d="M181.27845241021126,498.72994699614526 L212.3486325792772,514.4948993502946 M212.3486325792772,514.4948993502946 L246.79708180130672,527.7236562341615 M246.79708180130672,527.7236562341615 L284.00619779167846,538.176186270767 M284.00619779167846,538.176186270767 L323.30734297465636,545.6625931425024 M323.30734297465636,545.6625931425024 L363.993255667039,550.046707126215 M363.993255667039,550.046707126215 L405.3309129799391,551.248765218744 M405.3309129799391,551.248765218744 L446.5752451901138,549.2468653349765 M446.5752451901138,549.2468653349765 L486.98290850615535,544.0774613045247 M486.98290850615535,544.0774613045247 L525.8260709625739,535.8346056685642 M525.8260709625739,535.8346056685642 L562.405894437496,524.6681789197036 M562.405894437496,524.6681789197036 L596.0654411820902,510.7810119971814 M596.0654411820902,510.7810119971814 L626.2016150084498,494.4249672517793 M626.2016150084498,494.4249672517793 L652.2761882073961,475.8962154890305 M652.2761882073961,475.8962154890305 L673.8253863256258,455.52960550741295 M673.8253863256258,455.52960550741295 L690.4680226647154,433.6923839468153 M690.4680226647154,433.6923839468153 L701.912142489504,410.7774131536773 M701.912142489504,410.7774131536773 L707.9597703482029,387.19586944294406 M707.9597703482029,387.19586944294406 L708.5101162591758,363.3698298195829 M708.5101162591758,363.3698298195829 L703.560726552803,339.72456751979666 M703.560726552803,339.72456751979666 L693.2070922551139,316.6810246941525 M693.2070922551139,316.6810246941525 L677.6404436174707,294.64835027950943 M677.6404436174707,294.64835027950943 L657.1438473245549,274.0167140547645 M657.1438473245549,274.0167140547645 L632.0867924555265,255.1506100151937 M632.0867924555265,255.1506100151937 L602.9183087146794,238.38261220743738 M602.9183087146794,238.38261220743738 L570.1588685236968,224.0076899149816 M570.1588685236968,224.0076899149816 L534.3911242163076,212.27825567503794 M534.3911242163076,212.27825567503794 L496.2495810580464,203.39997664933102 M496.2495810580464,203.39997664933102 L456.40954047226626,197.52834507311184 M456.40954047226626,197.52834507311184 L415.5755157355016,194.76611492540022 M415.5755157355016,194.76611492540022 L374.46905654117654,195.1615913797819 M374.46905654117654,195.1615913797819 L333.81633394630944,198.70784191682037 M333.81633394630944,198.70784191682037 L294.3358155088836,205.3428616986019 M294.3358155088836,205.3428616986019 L256.7257901130724,214.95051073252762 M256.7257901130724,214.95051073252762 L221.6524905591509,227.36249624717016 M221.6524905591509,227.36249624717016 L189.73843902219926,242.3610963722216 M189.73843902219926,242.3610963722216 L161.55164932472323,259.68282852687844 M161.55164932472323,259.68282852687844 L137.59559027040143,279.02284061233286 M137.59559027040143,279.02284061233286 L118.30010563903676,300.04002236304564 M118.30010563903676,300.04002236304564 L104.0136862398769,322.3628609707791 M104.0136862398769,322.3628609707791 L94.99688486295122,345.5957738912158 M94.99688486295122,345.5957738912158 L91.41726705247993,369.3259871603405 M91.41726705247993,369.3259871603405 L93.34601444040243,393.1307760930592 M93.34601444040243,393.1307760930592 L100.75604347520192,416.58495099706084 M100.75604347520192,416.58495099706084 L113.52209040759175,439.2684395221514 M113.52209040759175,439.2684395221514 L131.4223126334275,460.77396666102953 M131.4223126334275,460.77396666102953 L154.1419326291266,480.7143927734793 M154.1419326291266,480.7143927734793 L181.27845241021126,498.72994699614526 M181.27845241021126,498.72994699614526 L160.8113785282083,487.03637352029807 M160.8113785282083,487.03637352029807 L132.26541706590012,468.18876288607873 M132.26541706590012,468.18876288607873 L108.14777327052548,447.3921072318501 M108.14777327052548,447.3921072318501 L88.85148197201033,424.99206752672825 M88.85148197201033,424.99206752672825 L74.68860963718657,401.3600802891476 M74.68860963718657,401.3600802891476 L65.88561776130632,376.8869476046052 M65.88561776130632,376.8869476046052 L62.57982706457648,351.97634856910344 M62.57982706457648,351.97634856910344 L64.81783397599384,327.03796951321993 M64.81783397599384,327.03796951321993 L72.55508097107645,302.4808465787225 M72.55508097107645,302.4808465787225 L85.65727062060614,278.7066298685679 M85.65727062060614,278.7066298685679 L103.90288040248754,256.10309062567273 M103.90288040248754,256.10309062567273 L126.98730391588026,235.03791492908556 M126.98730391588026,235.03791492908556 L154.5281794508186,215.85295637701967 M154.5281794508186,215.85295637701967 L186.07184207650036,198.8588162245607 M186.07184207650036,198.8588162245607 L221.1008615947348,184.33005078444148 M221.1008615947348,184.33005078444148 L259.0425637340032,172.50099174624376 M259.0425637340032,172.50099174624376 L299.2782134606468,163.56211944017085 M299.2782134606468,163.56211944017085 L341.15285327923465,157.65719996225133 M341.15285327923465,157.65719996225133 L383.98583375289945,154.8811357104456 M383.98583375289945,154.8811357104456 L427.08135245913485,155.2785137529531 M427.08135245913485,155.2785137529531 L469.7395579687012,158.84295326868676 M469.7395579687012,158.84295326868676 L511.26743518294626,165.51719946773335 M511.26743518294626,165.51719946773335 L550.9897606123925,175.19396198412062 M550.9897606123925,175.19396198412062 L588.2596715279054,187.71757406850728 M588.2596715279054,187.71757406850728 L622.4690384348534,202.88628449137755 M622.4690384348534,202.88628449137755 L653.0581547980643,220.45535795894307 M653.0581547980643,220.45535795894307 L679.5247842230154,240.14079420812504 M679.5247842230154,240.14079420812504 L701.4324222682393,261.6237117785433 M701.4324222682393,261.6237117785433 L718.417553449677,284.55529469382 M718.417553449677,284.55529469382 L730.1959317774214,308.56223706272584 M730.1959317774214,308.56223706272584 L736.5674972451551,333.2527190058476 M736.5674972451551,333.2527190058476 L737.4201729354235,358.222633949144 M737.4201729354235,358.222633949144 L732.7321571982621,383.06216949086166 M732.7321571982621,383.06216949086166 L722.5727885102557,407.3624619880494 M722.5727885102557,407.3624619880494 L707.101935358067,430.72246928848756 M707.101935358067,430.72246928848756 L686.5677824471214,452.7555779486074 M686.5677824471214,452.7555779486074 L661.3031716254108,473.096234937452 M661.3031716254108,473.096234937452 L631.7204625740249,491.40617171884185 M631.7204625740249,491.40617171884185 L598.3048357886943,507.38020689922973 M598.3048357886943,507.38020689922973 L561.6064315644841,520.7515913959234 M561.6064315644841,520.7515913959234 L522.231258372882,531.2966813721863 M522.231258372882,531.2966813721863 L480.8308962717061,538.8388576740335 M480.8308962717061,538.8388576740335 L438.0915767056302,543.2516576067718 M438.0915767056302,543.2516576067718 L394.72247170965085,544.4610772397253 M394.72247170965085,544.4610772397253 L351.44355600411035,542.4467945500066 M351.44355600411035,542.4467945500066 L308.9731770080081,537.242633849448 M308.9731770080081,537.242633849448 L268.0159416882285,528.9358632885945 M268.0159416882285,528.9358632885945 L229.25045423766176,517.6657550232313 M229.25045423766176,517.6657550232313 L193.31796008283462,503.620980818415 M193.31796008283462,503.620980818415 L160.8113785282083,487.03637352029807 M272.00952922984465,446.3230589378388 L296.18519892814345,458.07051093347076 M296.18519892814345,458.07051093347076 L323.5351220668235,467.2120158975142 M323.5351220668235,467.2120158975142 L353.2254678851693,473.4669973897992 M353.2254678851693,473.4669973897992 L384.34981941288476,476.64329420091315 M384.34981941288476,476.64329420091315 L415.95716099779423,476.64329420091315 M415.95716099779423,476.64329420091315 L447.0815125255097,473.4669973897992 M447.0815125255097,473.4669973897992 L476.77185834385557,467.21201589751433 M476.77185834385557,467.21201589751433 L504.12178148253554,458.07051093347076 M504.12178148253554,458.07051093347076 L528.2974511808344,446.3230589378388 M528.2974511808344,446.3230589378388 L548.5633375127355,432.3298021707575 M548.5633375127355,432.3298021707575 L564.3046683704305,416.51911808259916 M564.3046683704305,416.51911808259916 L575.0459861542548,399.37422016222087 M575.0459861542548,399.37422016222087 L580.4652192036475,381.41811367110074 M580.4652192036475,381.41811367110074 L580.4030147477715,363.1974980178172 M580.4030147477715,363.1974980178172 L574.8668754588142,345.26596891818093 M574.8668754588142,345.26596891818093 L564.0302547756213,328.16726139978323 M564.0302547756213,328.16726139978323 L548.2267191892006,312.4188095543488 M548.2267191892006,312.4188095543488 L527.9392291949209,298.49632076819586 M527.9392291949209,298.49632076819586 L503.78516270788924,286.8196368384866 M503.78516270788924,286.8196368384866 L476.49744405790386,277.7403643437585 M476.49744405790386,277.7403643437585 L446.9024012222884,271.5315735572837 M446.9024012222884,271.5315735572837 L415.89495630188696,268.3798542718253 M415.89495630188696,268.3798542718253 L384.412024108792,268.3798542718253 M384.412024108792,268.3798542718253 L353.4045791883905,271.5315735572837 M353.4045791883905,271.5315735572837 L323.8095363527751,277.7403643437585 M323.8095363527751,277.7403643437585 L296.52181770278975,286.8196368384866 M296.52181770278975,286.8196368384866 L272.3677512157574,298.4963207681961 M272.3677512157574,298.4963207681961 L252.0802612214784,312.4188095543488 M252.0802612214784,312.4188095543488 L236.2767256350577,328.16726139978323 M236.2767256350577,328.16726139978323 L225.44010495186475,345.26596891818093 M225.44010495186475,345.26596891818093 L219.90396566290747,363.1974980178172 M219.90396566290747,363.1974980178172 L219.84176120703145,381.41811367110074 M219.84176120703145,381.41811367110074 L225.26099425642408,399.37422016222087 M225.26099425642408,399.37422016222087 L236.0023120402485,416.51911808259916 M236.0023120402485,416.51911808259916 L251.7436428979434,432.3298021707574 M251.7436428979434,432.3298021707574 L272.00952922984465,446.3230589378388 M278.09261667355145,419.3240191061916 L258.29623972810464,405.59352035998455 M258.29623972810464,405.59352035998455 L243.07378872654448,390.0454951000769 M243.07378872654448,390.0454951000769 L232.91167300237805,373.18240731708005 M232.91167300237805,373.18240731708005 L228.13217338850723,355.5482348101045 M228.13217338850723,355.5482348101045 L228.88361418417188,337.71073529153625 M228.88361418417188,337.71073529153625 L235.13633536567346,320.24306583843804 M235.13633536567346,320.24306583843804 L246.6842721128975,303.70538867340116 M246.6842721128975,303.70538867340116 L263.15227956821036,288.6270121358553 M263.15227956821036,288.6270121358553 L284.00869634266417,275.48970374273785 M284.00869634266417,275.48970374273785 L308.58269202709164,264.7125253104224 M308.58269202709164,264.7125253104224 L336.0859171935994,256.6387897958945 M336.0859171935994,256.6387897958945 L365.63764105742547,251.52542480865787 M365.63764105742547,251.52542480865787 L396.292667668713,249.53502679073472 M396.292667668713,249.53502679073472 L427.0710979113804,250.73085016487812 M427.0710979113804,250.73085016487812 L456.9891349703651,255.07490111092636 M456.9891349703651,255.07490111092636 L485.0900685242668,262.42905807588875 M485.0900685242668,262.42905807588875 L510.4743397476031,272.5593505726427 M510.4743397476031,272.5593505726427 L532.3280284198624,285.1431618698861 M532.3280284198624,285.1431618698861 L549.9487561274655,299.779227684757 M549.9487561274655,299.779227684757 L562.7682489349604,316.0001230906981 M562.7682489349604,316.0001230906981 L570.3708584701756,333.28690083085394 M570.3708584701756,333.28690083085394 L572.5073568222125,351.08548441074305 M572.5073568222125,351.08548441074305 L569.1036174876588,368.82424223898227 M569.1036174876588,368.82424223898227 L560.2636154828583,385.93233597953144 M560.2636154828583,385.93233597953144 L546.2668404530605,401.85815166095534 M546.2668404530605,401.85815166095534 L527.5598953312356,416.0872330161854 M527.5598953312356,416.0872330161854 L504.74253778370814,428.1591590323134 M504.74253778370814,428.1591590323134 L478.5486106612082,437.6827303538498 M478.5486106612082,437.6827303538498 L449.82243391047774,444.34896901541407 M449.82243391047774,444.34896901541407 L419.4912793503783,447.94139593666927 M419.4912793503783,447.94139593666927 L388.5351283272847,448.34327414658185 M388.5351283272847,448.34327414658185 L357.9544891317559,445.54155520389304 M357.9544891317559,445.54155520389304 L328.73753888646525,439.627271482814 M328.73753888646525,439.627271482814 L301.82766977697895,430.79252065995695 M301.82766977697895,430.79252065995695 L278.09261667355145,419.3240191061916 M272.00952922984465,446.3230589378388 L278.09261667355145,419.3240191061916" stroke="black"  stroke-width="4"  fill="red"/></svg>